<?xml version="1.0" encoding="UTF-8"?>
<svg id="a" xmlns="http://www.w3.org/2000/svg" viewBox="0 0 1623.15 288.24">
  <defs>
    <style>
      .cls-1 {
        fill: #fff;
      }

      .cls-2 {
        fill: #4882db;
      }
    </style>
  </defs>
  <g>
    <rect class="cls-1" x="1094.42" y=".76" width="19.76" height="211.49"/>
    <path class="cls-1" d="M1291.5,86.91c-7.72-10.73-16.68-18.77-26.89-24.14-10.21-5.36-21.62-8.05-34.23-8.05-21.83,0-40.51,7.86-56.03,23.57-15.53,15.71-23.29,34.63-23.29,56.74s7.69,41.76,23.08,57.52c15.38,15.76,33.95,23.64,55.68,23.64,12.23,0,23.5-2.54,33.8-7.62s19.59-12.66,27.88-22.72v26.39h19.48V58.68h-19.48v28.23Zm-6.55,80.77c-5.22,9.31-12.67,16.68-22.34,22.14-9.68,5.45-19.93,8.18-30.73,8.18s-20.75-2.75-30.1-8.25-16.8-13.18-22.34-23.05c-5.54-9.87-8.32-20.21-8.32-31.01s2.75-21.24,8.25-31.01c5.5-9.78,12.9-17.37,22.21-22.77,9.3-5.4,19.46-8.11,30.45-8.11,17.11,0,31.51,5.97,43.21,17.9,11.7,11.94,17.55,26.79,17.55,44.55,0,11.65-2.61,22.13-7.83,31.44h-.01Z"/>
    <path class="cls-1" d="M1431.14,54.72c-12.22,0-23.45,2.52-33.7,7.55-10.24,5.03-19.51,12.63-27.78,22.79V.76h-19.76V212.24h19.76v-28.23c7.8,10.73,16.78,18.77,26.93,24.14,10.15,5.36,21.48,8.05,33.98,8.05,21.81,0,40.47-7.86,55.98-23.57s23.27-34.67,23.27-56.88-7.69-41.61-23.06-57.38c-15.37-15.76-33.91-23.64-55.63-23.64h.01Zm50.4,111.49c-5.49,9.79-12.88,17.38-22.18,22.79-9.29,5.41-19.44,8.12-30.42,8.12-17.09,0-31.48-5.98-43.16-17.93-11.69-11.95-17.53-26.82-17.53-44.6,0-11.67,2.61-22.16,7.82-31.48,5.21-9.32,12.67-16.73,22.39-22.23s19.97-8.26,30.77-8.26,20.58,2.75,29.92,8.26c9.34,5.5,16.78,13.2,22.32,23.08,5.54,9.88,8.31,20.28,8.31,31.19s-2.75,21.27-8.24,31.05h0Z"/>
    <path class="cls-1" d="M1615.38,146.89c-5.28-7.06-15.28-14.4-29.99-22.02-12.07-6.21-19.99-11.62-23.76-16.23-3.77-4.52-5.66-9.27-5.66-14.26,0-5.65,2.29-10.59,6.86-14.82,4.57-4.23,10.07-6.35,16.49-6.35,10.09,0,20.42,5.13,30.99,15.38l12.7-13.13c-14.33-13.83-28.56-20.75-42.7-20.75-12.16,0-22.22,3.86-30.19,11.57-7.97,7.72-11.95,17.41-11.95,29.08,0,8.94,2.5,16.89,7.49,23.85,5,6.96,14.43,14.02,28.29,21.17,12.92,6.59,21.22,12.04,24.9,16.37,3.68,4.42,5.52,9.46,5.52,15.1,0,6.87-2.79,12.84-8.35,17.93-5.57,5.08-12.31,7.62-20.23,7.62-11.32,0-22.02-5.69-32.11-17.08l-12.42,14.11c5.28,6.78,11.94,12.09,20,15.95,8.05,3.86,16.51,5.79,25.38,5.79,13.28,0,24.36-4.38,33.22-13.13s13.29-19.43,13.29-32.04c0-8.94-2.59-16.98-7.78-24.14v.03Z"/>
  </g>
  <g>
    <g>
      <path class="cls-2" d="M342.32,50.68c39.07,0,70.22,31.43,70.22,81.83s-30.86,82.11-70.22,82.11c-23.5,0-40.21-11.04-49.27-24.63v98.25h-48.98V52.95h48.98v22.65c9.06-14.16,26.05-24.92,49.27-24.92Zm-14.44,42.47c-18.4,0-34.83,13.87-34.83,39.36s16.71,39.36,34.83,39.36,35.11-14.16,35.11-39.64-16.42-39.07-35.11-39.07h0Z"/>
      <path class="cls-2" d="M499.18,50.68c23.78,0,40.49,10.76,49.27,24.92v-22.65h48.7V212.36h-48.98v-22.65c-8.78,13.87-25.77,24.92-49.55,24.92-38.79,0-69.94-31.99-69.94-82.39s31.15-81.54,70.5-81.54v-.02Zm14.16,42.47c-18.4,0-34.83,13.59-34.83,39.07s16.71,39.64,34.83,39.64,34.83-13.87,34.83-39.36-16.14-39.36-34.83-39.36h0Z"/>
      <path class="cls-2" d="M681.24,212.36h-48.98V52.95h48.98v26.62c11.04-16.99,28.6-28.31,50.12-28.31v51.81h-13.31c-23.22,0-36.53,7.93-36.53,35.39v73.9h-.28Z"/>
      <path class="cls-2" d="M825.07,50.68c39.92,0,68.24,22.08,76.73,60.03h-52.1c-3.96-11.04-11.89-18.4-25.48-18.4-17.55,0-29.45,13.59-29.45,40.21s11.89,40.21,29.45,40.21c13.31,0,21.24-6.51,25.48-18.4h52.1c-8.21,36.81-36.53,60.03-76.73,60.03-47,0-80.13-31.43-80.13-82.11s33.41-81.54,80.13-81.54v-.03Z"/>
      <path class="cls-2" d="M927.57,.85h48.98V212.36h-48.98V.85Z"/>
    </g>
    <g>
      <polygon class="cls-2" points="156.86 53.23 156.86 106.18 156.86 159.13 104.48 159.13 104.48 212.07 156.86 212.07 208.96 212.07 208.96 159.13 208.96 106.18 208.96 53.23 156.86 53.23"/>
      <polygon class="cls-2" points="52.38 106.18 52.38 53.23 104.48 53.23 156.86 53.23 156.86 0 104.48 0 52.38 0 0 0 0 53.23 0 106.18 0 159.13 0 212.07 52.38 212.07 52.38 159.13 52.38 106.18"/>
    </g>
  </g>
</svg>